<svg width="253" height="29" viewBox="0 0 253 29" fill="none" xmlns="http://www.w3.org/2000/svg">
<path d="M7.488 22.564V17.056H26.136V22.564H7.488ZM21.384 0.999998L33.84 28H26.604L15.912 3.844H18L7.344 28H0.072L12.564 0.999998H21.384ZM36.5889 0.999998H43.3929V28H36.5889V0.999998Z" fill="#00FF94"/>
<path d="M57.1795 4.024H63.9835V28H57.1795V4.024ZM46.6675 0.999998H74.4955V7.012H46.6675V0.999998ZM83.9675 28.576C81.3755 28.576 79.1075 28.12 77.1635 27.208C75.2195 26.296 73.7075 25.024 72.6275 23.392C71.5475 21.76 71.0075 19.876 71.0075 17.74C71.0075 15.58 71.5475 13.696 72.6275 12.088C73.7075 10.456 75.2195 9.184 77.1635 8.272C79.1315 7.36 81.3995 6.904 83.9675 6.904C86.5595 6.904 88.8275 7.36 90.7715 8.272C92.7395 9.184 94.2635 10.456 95.3435 12.088C96.4235 13.696 96.9635 15.58 96.9635 17.74C96.9635 19.9 96.4235 21.796 95.3435 23.428C94.2635 25.036 92.7395 26.296 90.7715 27.208C88.8275 28.12 86.5595 28.576 83.9675 28.576ZM83.9675 23.536C85.2875 23.536 86.4035 23.308 87.3155 22.852C88.2515 22.372 88.9595 21.7 89.4395 20.836C89.9435 19.972 90.1955 18.94 90.1955 17.74C90.1955 16.54 89.9435 15.508 89.4395 14.644C88.9595 13.78 88.2515 13.12 87.3155 12.664C86.4035 12.184 85.2875 11.944 83.9675 11.944C82.6955 11.944 81.5915 12.184 80.6555 12.664C79.7195 13.12 78.9995 13.78 78.4955 14.644C77.9915 15.508 77.7395 16.54 77.7395 17.74C77.7395 18.94 77.9915 19.972 78.4955 20.836C78.9995 21.7 79.7195 22.372 80.6555 22.852C81.5915 23.308 82.6955 23.536 83.9675 23.536ZM128.148 16.3C128.1 17.932 127.776 19.492 127.176 20.98C126.576 22.444 125.712 23.752 124.584 24.904C123.456 26.032 122.064 26.932 120.408 27.604C118.752 28.252 116.82 28.576 114.612 28.576C112.5 28.576 110.52 28.264 108.672 27.64C106.848 27.016 105.24 26.104 103.848 24.904C102.456 23.704 101.376 22.228 100.608 20.476C99.8396 18.724 99.4556 16.732 99.4556 14.5C99.4556 12.268 99.8396 10.276 100.608 8.524C101.4 6.772 102.492 5.296 103.884 4.096C105.3 2.896 106.944 1.984 108.816 1.36C110.712 0.735999 112.776 0.423999 115.008 0.423999C117.912 0.423999 120.432 0.879999 122.568 1.792C124.728 2.704 126.456 3.952 127.752 5.536C129.072 7.12 129.912 8.944 130.272 11.008H123.396C123.156 10 122.652 9.136 121.884 8.416C121.116 7.696 120.144 7.144 118.968 6.76C117.816 6.352 116.496 6.148 115.008 6.148C113.208 6.148 111.66 6.472 110.364 7.12C109.068 7.744 108.06 8.68 107.34 9.928C106.62 11.152 106.26 12.676 106.26 14.5C106.26 16.324 106.644 17.872 107.412 19.144C108.18 20.416 109.26 21.376 110.652 22.024C112.044 22.672 113.688 22.996 115.584 22.996C117.432 22.996 119.052 22.72 120.444 22.168C121.86 21.616 122.976 20.824 123.792 19.792C124.632 18.76 125.112 17.524 125.232 16.084L128.148 16.3ZM116.376 19.036V14.212H130.524V28H125.664L124.728 17.2L126.096 19.036H116.376ZM146.401 28.576C143.953 28.576 141.757 28.12 139.813 27.208C137.893 26.296 136.381 25.024 135.277 23.392C134.173 21.76 133.621 19.852 133.621 17.668C133.621 15.532 134.149 13.66 135.205 12.052C136.261 10.444 137.713 9.184 139.561 8.272C141.433 7.36 143.545 6.904 145.897 6.904C148.297 6.904 150.361 7.432 152.089 8.488C153.817 9.544 155.149 11.032 156.085 12.952C157.021 14.872 157.489 17.128 157.489 19.72H138.985V15.508H153.817L151.405 17.02C151.333 15.892 151.057 14.944 150.577 14.176C150.121 13.384 149.509 12.784 148.741 12.376C147.973 11.944 147.061 11.728 146.005 11.728C144.853 11.728 143.857 11.956 143.017 12.412C142.177 12.868 141.517 13.504 141.037 14.32C140.581 15.136 140.353 16.084 140.353 17.164C140.353 18.532 140.653 19.696 141.253 20.656C141.877 21.616 142.765 22.348 143.917 22.852C145.093 23.356 146.521 23.608 148.201 23.608C149.737 23.608 151.273 23.404 152.809 22.996C154.345 22.564 155.725 21.964 156.949 21.196V25.552C155.557 26.512 153.961 27.256 152.161 27.784C150.385 28.312 148.465 28.576 146.401 28.576ZM158.418 12.448V9.532L162.666 7.984L165.546 2.008H169.362V7.48H178.218V12.448H169.362V19.216C169.362 20.752 169.674 21.832 170.298 22.456C170.922 23.056 172.038 23.356 173.646 23.356C174.678 23.356 175.578 23.272 176.346 23.104C177.138 22.912 177.882 22.66 178.578 22.348V27.424C177.858 27.712 176.91 27.976 175.734 28.216C174.582 28.456 173.382 28.576 172.134 28.576C169.95 28.576 168.15 28.228 166.734 27.532C165.342 26.836 164.31 25.864 163.638 24.616C162.99 23.344 162.666 21.856 162.666 20.152V12.448H158.418ZM181.668 0.279999H188.328V28H181.668V0.279999ZM196.032 6.904C197.976 6.904 199.632 7.3 201 8.092C202.392 8.86 203.448 9.964 204.168 11.404C204.912 12.844 205.284 14.56 205.284 16.552V28H198.588V17.56C198.588 15.856 198.168 14.572 197.328 13.708C196.512 12.82 195.312 12.376 193.728 12.376C192.648 12.376 191.7 12.616 190.884 13.096C190.068 13.552 189.432 14.212 188.976 15.076C188.544 15.916 188.328 16.924 188.328 18.1L186.204 16.984C186.492 14.8 187.092 12.964 188.004 11.476C188.916 9.988 190.056 8.86 191.424 8.092C192.816 7.3 194.352 6.904 196.032 6.904ZM221.073 28.576C218.625 28.576 216.429 28.12 214.485 27.208C212.565 26.296 211.053 25.024 209.949 23.392C208.845 21.76 208.293 19.852 208.293 17.668C208.293 15.532 208.821 13.66 209.877 12.052C210.933 10.444 212.385 9.184 214.233 8.272C216.105 7.36 218.217 6.904 220.569 6.904C222.969 6.904 225.033 7.432 226.761 8.488C228.489 9.544 229.821 11.032 230.757 12.952C231.693 14.872 232.161 17.128 232.161 19.72H213.657V15.508H228.489L226.077 17.02C226.005 15.892 225.729 14.944 225.249 14.176C224.793 13.384 224.181 12.784 223.413 12.376C222.645 11.944 221.733 11.728 220.677 11.728C219.525 11.728 218.529 11.956 217.689 12.412C216.849 12.868 216.189 13.504 215.709 14.32C215.253 15.136 215.025 16.084 215.025 17.164C215.025 18.532 215.325 19.696 215.925 20.656C216.549 21.616 217.437 22.348 218.589 22.852C219.765 23.356 221.193 23.608 222.873 23.608C224.409 23.608 225.945 23.404 227.481 22.996C229.017 22.564 230.397 21.964 231.621 21.196V25.552C230.229 26.512 228.633 27.256 226.833 27.784C225.057 28.312 223.137 28.576 221.073 28.576ZM234.45 7.48H241.218L242.442 14.86V28H235.746V14.32L234.45 7.48ZM252.234 7.192V12.952C251.586 12.808 250.938 12.7 250.29 12.628C249.666 12.556 249.09 12.52 248.562 12.52C247.41 12.52 246.366 12.76 245.43 13.24C244.518 13.696 243.786 14.428 243.234 15.436C242.706 16.444 242.442 17.752 242.442 19.36L241.11 17.704C241.278 16.24 241.554 14.86 241.938 13.564C242.322 12.268 242.85 11.128 243.522 10.144C244.194 9.136 245.022 8.344 246.006 7.768C247.014 7.192 248.226 6.904 249.642 6.904C250.05 6.904 250.482 6.928 250.938 6.976C251.394 7.024 251.826 7.096 252.234 7.192Z" fill="white"/>
</svg>
