<svg width="22" height="19" viewBox="0 0 22 19" fill="none" xmlns="http://www.w3.org/2000/svg">
<path d="M6.92098 18.2324C15.2208 18.2324 19.7618 11.3066 19.7618 5.30232C19.7618 5.10762 19.7575 4.90859 19.7489 4.71388C20.6322 4.07061 21.3945 3.27384 22 2.36099C21.1773 2.72956 20.3038 2.97027 19.4094 3.0749C20.3512 2.50647 21.0563 1.61348 21.3941 0.561486C20.5082 1.0902 19.5393 1.46316 18.529 1.66438C17.8483 0.936051 16.9482 0.453813 15.968 0.29222C14.9879 0.130627 13.9821 0.298681 13.1063 0.770398C12.2304 1.24212 11.5333 1.99122 11.1227 2.9019C10.7121 3.81258 10.6108 4.83411 10.8346 5.80855C9.04062 5.7179 7.28561 5.24864 5.68332 4.43119C4.08102 3.61374 2.66722 2.46634 1.53355 1.06339C0.957366 2.06372 0.781052 3.24743 1.04044 4.37395C1.29984 5.50048 1.97547 6.48528 2.93004 7.12822C2.21341 7.10531 1.51248 6.91102 0.885156 6.56141V6.61766C0.884514 7.66742 1.24492 8.68502 1.90512 9.49747C2.56531 10.3099 3.48455 10.8671 4.50656 11.0742C3.84272 11.2571 3.14598 11.2838 2.47027 11.1521C2.75867 12.0549 3.31978 12.8445 4.07529 13.4108C4.8308 13.977 5.74303 14.2916 6.68465 14.3106C5.08606 15.5751 3.11133 16.2609 1.07852 16.2577C0.718013 16.2571 0.357866 16.2349 0 16.1911C2.06512 17.5252 4.4674 18.2337 6.92098 18.2324Z" fill="white"/>
</svg>
