<svg width="22" height="23" viewBox="0 0 22 23" fill="none" xmlns="http://www.w3.org/2000/svg">
<path d="M11.0064 2.21367C13.9472 2.21367 14.2955 2.22656 15.452 2.27813C16.5269 2.32541 17.1073 2.50591 17.4942 2.65633C18.0059 2.85403 18.3756 3.0947 18.7583 3.4772C19.1452 3.86399 19.3817 4.2293 19.5794 4.74072C19.7299 5.12752 19.9105 5.71201 19.9578 6.78214C20.0094 7.94252 20.0223 8.29064 20.0223 11.226C20.0223 14.1656 20.0094 14.5137 19.9578 15.6698C19.9105 16.7442 19.7299 17.3244 19.5794 17.7112C19.3817 18.2227 19.1409 18.5923 18.7583 18.9748C18.3713 19.3615 18.0059 19.5979 17.4942 19.7956C17.1073 19.946 16.5226 20.1265 15.452 20.1738C14.2912 20.2254 13.9429 20.2383 11.0064 20.2383C8.06566 20.2383 7.71741 20.2254 6.56088 20.1738C5.48603 20.1265 4.90561 19.946 4.51866 19.7956C4.00704 19.5979 3.63729 19.3573 3.25464 18.9748C2.8677 18.588 2.63123 18.2227 2.43346 17.7112C2.28298 17.3244 2.1024 16.7399 2.05511 15.6698C2.00352 14.5094 1.99062 14.1613 1.99062 11.226C1.99062 8.28634 2.00352 7.93822 2.05511 6.78214C2.1024 5.70771 2.28298 5.12752 2.43346 4.74072C2.63123 4.2293 2.872 3.85969 3.25464 3.4772C3.64159 3.0904 4.00704 2.85403 4.51866 2.65633C4.90561 2.50591 5.49033 2.32541 6.56088 2.27813C7.71741 2.22656 8.06566 2.21367 11.0064 2.21367ZM11.0064 0.232422C8.01837 0.232422 7.64432 0.245315 6.47059 0.296888C5.30115 0.34846 4.49717 0.53756 3.80066 0.808316C3.07407 1.09196 2.45925 1.46587 1.84874 2.08044C1.23393 2.69071 0.859879 3.30529 0.576119 4.0273C0.305257 4.72783 0.116084 5.52721 0.0644909 6.69618C0.0128982 7.87376 0 8.24766 0 11.2346C0 14.2215 0.0128982 14.5954 0.0644909 15.7687C0.116084 16.9376 0.305257 17.7413 0.576119 18.4375C0.859879 19.1639 1.23393 19.7784 1.84874 20.3887C2.45925 20.999 3.07407 21.3772 3.79637 21.6565C4.49717 21.9273 5.29685 22.1164 6.46629 22.168C7.64002 22.2195 8.01407 22.2324 11.0021 22.2324C13.9902 22.2324 14.3643 22.2195 15.538 22.168C16.7074 22.1164 17.5114 21.9273 18.2079 21.6565C18.9302 21.3772 19.545 20.999 20.1556 20.3887C20.7661 19.7784 21.1444 19.1639 21.4239 18.4418C21.6947 17.7413 21.8839 16.9419 21.9355 15.773C21.9871 14.5997 22 14.2258 22 11.2389C22 8.25196 21.9871 7.87806 21.9355 6.70478C21.8839 5.5358 21.6947 4.73213 21.4239 4.0359C21.153 3.30529 20.779 2.69071 20.1642 2.08044C19.5536 1.47016 18.9388 1.09196 18.2165 0.812613C17.5157 0.541857 16.716 0.352758 15.5466 0.301185C14.3686 0.245315 13.9945 0.232422 11.0064 0.232422Z" fill="white"/>
<path d="M11.0064 5.58308C7.88509 5.58308 5.35275 8.11443 5.35275 11.2346C5.35275 14.3547 7.88509 16.8861 11.0064 16.8861C14.1278 16.8861 16.6602 14.3547 16.6602 11.2346C16.6602 8.11443 14.1278 5.58308 11.0064 5.58308ZM11.0064 14.9005C8.98143 14.9005 7.33907 13.2588 7.33907 11.2346C7.33907 9.21035 8.98143 7.56862 11.0064 7.56862C13.0315 7.56862 14.6738 9.21035 14.6738 11.2346C14.6738 13.2588 13.0315 14.9005 11.0064 14.9005Z" fill="white"/>
<path d="M18.2036 5.35956C18.2036 6.09017 17.6103 6.67896 16.8837 6.67896C16.1528 6.67896 15.5638 6.08587 15.5638 5.35956C15.5638 4.62894 16.1571 4.04016 16.8837 4.04016C17.6103 4.04016 18.2036 4.63324 18.2036 5.35956Z" fill="white"/>
</svg>
