<svg width="25" height="24" viewBox="0 0 25 24" fill="none" xmlns="http://www.w3.org/2000/svg">
<path fill-rule="evenodd" clip-rule="evenodd" d="M0.957489 11.6163C0.957489 18.0319 6.19353 23.2327 12.6525 23.2327C19.1115 23.2327 24.3476 18.0319 24.3476 11.6163C24.3476 5.20081 19.1115 0 12.6525 0C6.19353 0 0.957489 5.20081 0.957489 11.6163ZM10.5084 16.9405L10.7074 13.9794L10.7072 13.9793L16.1303 9.11837C16.3683 8.90856 16.0783 8.80625 15.7624 8.99655L9.06959 13.1905L6.17868 12.2943C5.55437 12.1044 5.54989 11.6783 6.31884 11.372L17.5841 7.05737C18.0986 6.82535 18.5952 7.18012 18.3988 7.9623L16.4803 16.942C16.3463 17.5801 15.9582 17.7327 15.4203 17.438L12.4979 15.2934L11.0932 16.6501C11.0888 16.6544 11.0843 16.6586 11.08 16.6629C10.9229 16.8148 10.7929 16.9405 10.5084 16.9405Z" fill="white"/>
</svg>
