<svg width="23" height="22" viewBox="0 0 23 22" fill="none" xmlns="http://www.w3.org/2000/svg">
<path fill-rule="evenodd" clip-rule="evenodd" d="M11.9929 0C18.072 0 23 4.89488 23 10.933C23 16.9712 18.072 21.866 11.9929 21.866C5.91388 21.866 0.98584 16.9712 0.98584 10.933C0.98584 4.89488 5.91388 0 11.9929 0ZM14.9255 9.54755C14.8719 9.11555 14.7383 8.77635 14.5009 8.47589C14.1926 8.08901 13.7987 7.85734 13.2154 7.71991C12.8354 7.62831 12.6818 7.63883 12.5443 7.76355C12.4163 7.88041 12.3913 8.11467 12.4891 8.26636C12.5579 8.37647 12.6373 8.41591 12.8581 8.45896C13.1522 8.5127 13.3554 8.58243 13.5402 8.68741C13.9325 8.91242 14.1152 9.26453 14.1348 9.83457C14.1439 10.1022 14.1672 10.1845 14.2613 10.2794C14.4358 10.453 14.7462 10.4192 14.8779 10.2116C14.9262 10.1333 14.9336 10.0992 14.9387 9.91747C14.9421 9.80496 14.9372 9.63748 14.9255 9.54755ZM14.9307 6.8969C15.8635 7.6461 16.3846 8.71093 16.4621 10.0344C16.4947 10.5557 16.4514 10.7255 16.2663 10.8222C16.0992 10.9118 15.9099 10.8823 15.78 10.7474C15.694 10.6597 15.661 10.5397 15.6622 10.3272C15.666 9.73964 15.5297 9.08351 15.3081 8.62823C15.0517 8.09833 14.6553 7.64739 14.1566 7.3177C13.7198 7.02814 13.1417 6.83254 12.5812 6.78384C12.2176 6.75224 12.0878 6.69108 12.018 6.51796C11.9748 6.41441 11.9862 6.23537 12.0369 6.15519C12.0848 6.08125 12.1923 5.99948 12.2684 5.97786C12.3489 5.95452 12.8186 5.99533 13.0736 6.04568C13.7699 6.18646 14.4052 6.47593 14.9307 6.8969ZM18.1625 15.1314C18.1365 15.0557 18.0757 14.939 18.0322 14.872C17.7585 14.4614 16.2878 13.3182 15.5535 12.9444C15.1343 12.7305 14.8236 12.6591 14.5933 12.7261C14.3457 12.7953 14.2153 12.9098 13.8004 13.422C13.6332 13.6273 13.4615 13.8196 13.4159 13.8498C13.3029 13.9277 13.0814 13.9903 12.925 13.9903C12.5622 13.9881 11.9039 13.7548 11.3978 13.4479C11.0046 13.2102 10.5006 12.7845 10.1139 12.3631C9.65767 11.8682 9.34706 11.4317 9.10155 10.939C8.78441 10.3058 8.70403 9.91895 8.83652 9.63584C8.86912 9.56453 8.91257 9.48892 8.9321 9.46511C8.95166 9.44354 9.15588 9.27712 9.38178 9.09558C9.82497 8.74552 9.89665 8.66556 9.97919 8.42568C10.0835 8.12096 10.0552 7.80977 9.89448 7.49644C9.77065 7.25871 9.44697 6.74007 9.21236 6.40512C8.90171 5.96429 8.12833 5.02208 7.97407 4.89454C7.69601 4.66981 7.33978 4.63089 6.94654 4.7822C6.53165 4.94212 5.75391 5.56448 5.42153 5.99886C5.12174 6.39216 5.00664 6.67092 4.98925 7.03829C4.97405 7.34082 5.00011 7.46617 5.16087 7.85301C6.41868 10.8871 8.29559 13.3096 10.8742 15.2329C12.2211 16.2378 13.6179 17.0028 15.0669 17.5258C15.912 17.8305 16.2791 17.8456 16.7114 17.5949C16.8939 17.4869 17.3457 17.0266 17.5977 16.6916C18.0148 16.1341 18.1691 15.8769 18.2125 15.6716C18.2429 15.5312 18.219 15.287 18.1625 15.1314ZM17.607 8.29115C17.8716 8.97579 17.9985 9.58987 18.0264 10.3385C18.0308 10.4864 18.0287 10.7574 18.0191 10.941C17.999 11.2928 17.9798 11.3627 17.8778 11.4558C17.7139 11.6086 17.3943 11.5722 17.2732 11.3881C17.2099 11.2893 17.201 11.2169 17.2132 10.8058C17.2484 9.58978 17.0008 8.63763 16.4043 7.68555C15.6915 6.5433 14.6253 5.77382 13.2389 5.39737C12.8853 5.30155 12.5873 5.24315 12.124 5.18119C11.8221 5.14194 11.756 5.12535 11.6815 5.0798C11.4564 4.93663 11.4534 4.57407 11.6778 4.42871C11.7936 4.35198 11.8789 4.34855 12.2563 4.39656C13.3629 4.53391 14.3503 4.86051 15.1617 5.35404C15.7432 5.70827 16.1099 6.02649 16.582 6.58381C17.0814 7.17821 17.3458 7.61768 17.607 8.29115Z" fill="white"/>
</svg>
